# xmcd CD database file
#
# Track frame offsets:
#	150
#	23558
#	41683
#	79967
#	102559
#	116512
#	133976
#	151169
#	175163
#	192849
#	209206
#	228904
#	254712
#	277701
#	297121
#	312564
#	329525
#
# Disc length: 4679 seconds
#
# Revision: 0
# Processed by: cddbd v1.5.2PL0 Copyright (c) Steve Scherf et al.
# Submitted via: CDex 1.70beta2
#
DISCID=fc124511
DTITLE=Various Artist - Nick The Nightfly Buona Vita CD3
DYEAR=2009
DGENRE=New Age
TTITLE0=AR Rahman - Mumbai Theme Tune
TTITLE1=Bryan Adams and Sarah Mclachlan - Don't Let Go
TTITLE2=Anna Maria Jopek and Friend With Pat Metheny - Are You Going With Me
TTITLE3=Deladap - Le Shin
TTITLE4=Henri Salvador and Gilberto Gil - Tu Sais Je Vais T'Aimer
TTITLE5=Radiodervish - L'Immagine Di Te
TTITLE6=Les Baxter - Jungle Flower
TTITLE7=Michel Bisceglia Trio - Out To Sea
TTITLE8=Joe Barbieri - Fammi Tremare I Polsi
TTITLE9=Kantango - Rain
TTITLE10=Lura - Libramor
TTITLE11=Cassandra Wilson - A Little Warm
TTITLE12=Belmondo and Milton Nascimento - Cancao Do Sal
TTITLE13=Black Mighty Orchestra - Ocean Beach
TTITLE14=Lyambiko - See Line Woman
TTITLE15=Patrizia Laquidara - Ziza
TTITLE16=Jeff Buckley - Everybody Here Wants You
EXTD=YEAR: 2009
EXTT0=
EXTT1=
EXTT2=
EXTT3=
EXTT4=
EXTT5=
EXTT6=
EXTT7=
EXTT8=
EXTT9=
EXTT10=
EXTT11=
EXTT12=
EXTT13=
EXTT14=
EXTT15=
EXTT16=
PLAYORDER=
